<svg width="132" height="72" viewBox="0 0 132 72" fill="none" xmlns="http://www.w3.org/2000/svg">
<path d="M4.03553 0.146447C3.84027 -0.0488155 3.52369 -0.0488155 3.32842 0.146447L0.146442 3.32843C-0.0488197 3.52369 -0.0488197 3.84027 0.146442 4.03553C0.341705 4.2308 0.658287 4.2308 0.853549 4.03553L3.68198 1.20711L6.5104 4.03553C6.70567 4.2308 7.02225 4.2308 7.21751 4.03553C7.41277 3.84027 7.41277 3.52369 7.21751 3.32843L4.03553 0.146447ZM3.68198 67.5H3.18198V68H3.68198V67.5ZM130.036 67.8536C130.231 67.6583 130.231 67.3417 130.036 67.1464L126.854 63.9645C126.658 63.7692 126.342 63.7692 126.146 63.9645C125.951 64.1597 125.951 64.4763 126.146 64.6716L128.975 67.5L126.146 70.3284C125.951 70.5237 125.951 70.8403 126.146 71.0355C126.342 71.2308 126.658 71.2308 126.854 71.0355L130.036 67.8536ZM3.68198 0.5H3.18198V67.5H3.68198H4.18198V0.5H3.68198ZM3.68198 67.5V68H129.682V67.5V67H3.68198V67.5Z" fill="#5D5E60"/>
<path d="M8.77289 63.2595C9.43222 26.7393 14.6126 4.03116 16.779 4.03116C18.9454 4.03116 21.0175 53.3491 32.5087 53.3491C51.3466 53.3491 78.9441 -2.13363 131.973 0.597629" stroke="black"/>
<circle cx="65.682" cy="28.5" r="5" fill="#FFCD3E"/>
<path d="M61.678 49.5V40.56H62.854V49.5H61.678ZM64.902 43.548V43.008C65.15 42.944 65.334 42.828 65.454 42.66C65.582 42.484 65.658 42.264 65.682 42H65.142V40.56H66.306V41.58C66.306 42.1 66.186 42.532 65.946 42.876C65.714 43.212 65.366 43.436 64.902 43.548ZM68.428 49.5V40.56H69.508L72.856 45.324H72.304L75.628 40.56H76.708V49.5H75.52V42.048L75.94 42.18L72.616 46.86H72.52L69.232 42.18L69.604 42.048V49.5H68.428ZM80.7678 49.5V40.56H81.9438V44.544H86.4198V40.56H87.6078V49.5H86.4198V45.624H81.9438V49.5H80.7678ZM89.592 49.5V40.56H95.412V41.64H90.768V44.472H95.172V45.552H90.768V48.42H95.412V49.5H89.592ZM96.8694 49.5V40.56H100.025C100.617 40.56 101.137 40.672 101.585 40.896C102.033 41.12 102.381 41.44 102.629 41.856C102.885 42.272 103.013 42.76 103.013 43.32C103.013 43.952 102.853 44.488 102.533 44.928C102.213 45.368 101.781 45.684 101.237 45.876L103.313 49.5H101.945L99.7614 45.624L100.541 46.08H98.0454V49.5H96.8694ZM98.0454 45H100.061C100.413 45 100.721 44.932 100.985 44.796C101.249 44.66 101.453 44.464 101.597 44.208C101.749 43.952 101.825 43.656 101.825 43.32C101.825 42.976 101.749 42.68 101.597 42.432C101.453 42.176 101.249 41.98 100.985 41.844C100.721 41.708 100.413 41.64 100.061 41.64H98.0454V45ZM104.651 49.5V40.56H110.471V41.64H105.827V44.472H110.231V45.552H105.827V48.42H110.471V49.5H104.651ZM115.01 44.976L114.218 44.412L115.202 43.104L113.726 42.6L114.026 41.676L115.514 42.168V40.56H116.486V42.168L117.974 41.676L118.274 42.6L116.798 43.104L117.77 44.412L116.99 44.976L115.994 43.668L115.01 44.976Z" fill="#1B1B1C"/>
</svg>
